<svg width="96" height="96" xmlns="http://www.w3.org/2000/svg" xmlns:xlink="http://www.w3.org/1999/xlink" xml:space="preserve" overflow="hidden" fill="#000000">
<g transform="translate(-717 -576)">
<path d="M747 643.6C750.1 643.6 753.1 643.2 756 642.3 752.4 638.4 747.8 635.6 742.7 634.1 740.5 633.5 738.3 633.3 736 633.3 732.9 633.3 729.9 633.7 727 634.6 730.6 638.5 735.2 641.3 740.3 642.8 742.5 643.4 744.7 643.6 747 643.6ZM736 635.3C738.1 635.3 740.1 635.5 742.1 636.1 745.7 637.1 749 638.9 751.8 641.3 750.2 641.6 748.5 641.7 746.8 641.7 744.7 641.7 742.7 641.5 740.7 640.9 737.1 639.9 733.8 638.1 731 635.7 732.7 635.4 734.4 635.3 736 635.3Z"/>
<path d="M747.2 633.2C746 628 743.4 623.3 739.8 619.4 735.9 615.8 731.2 613.2 726 612 727.2 617.2 729.8 621.9 733.4 625.8 737.3 629.4 742 632 747.2 633.2ZM738.4 620.8C741 623.5 742.9 626.7 744.2 630.2 740.7 628.9 737.5 627 734.8 624.4 732.2 621.7 730.3 618.5 729 615 732.5 616.3 735.7 618.3 738.4 620.8L738.4 620.8Z"/>
<path d="M744.4 621.2C745.9 616.1 746.1 610.7 744.9 605.5 743.4 600.4 740.6 595.8 736.7 592.2 735.2 597.3 735 602.7 736.2 607.9 737.7 613 740.5 617.6 744.4 621.2ZM737.8 596.3C740.2 599.1 741.9 602.5 743 606 743.9 609.6 744 613.4 743.3 617.1 740.9 614.3 739.2 610.9 738.1 607.4 737.3 603.8 737.1 600 737.8 596.3Z"/>
<path d="M756.9 600.2C758.1 595 757.9 589.6 756.4 584.5 752.5 588.1 749.7 592.7 748.2 597.8 747 603 747.2 608.4 748.7 613.5 752.5 609.9 755.4 605.3 756.9 600.2ZM750.1 598.3C751.1 594.7 752.9 591.4 755.3 588.6 756 592.3 755.8 596 755 599.7 754 603.3 752.2 606.6 749.8 609.4 749.1 605.7 749.3 601.9 750.1 598.3L750.1 598.3Z"/>
<path d="M787.3 634.1C782.2 635.6 777.6 638.4 774 642.3 776.9 643.2 780 643.6 783 643.6 785.2 643.6 787.5 643.3 789.7 642.8 794.8 641.3 799.4 638.5 803 634.6 800.1 633.7 797.1 633.2 794 633.2 791.7 633.2 789.5 633.5 787.3 634.1ZM789.2 640.9C787.2 641.4 785.1 641.7 783.1 641.7 781.4 641.7 779.8 641.6 778.1 641.3 780.9 638.9 784.3 637.1 787.8 636.1 789.8 635.6 791.9 635.3 794 635.3 795.7 635.3 797.3 635.5 799 635.7 796.1 638.1 792.8 639.9 789.2 640.9Z"/>
<path d="M804 612C798.8 613.2 794.1 615.8 790.2 619.4 786.5 623.3 784 628 782.8 633.2 788 632 792.7 629.4 796.6 625.8 800.2 621.9 802.8 617.2 804 612ZM785.8 630.2C787.1 626.7 789 623.5 791.6 620.8 794.3 618.2 797.5 616.3 801 615 799.7 618.5 797.8 621.7 795.2 624.4 792.5 626.9 789.3 628.9 785.8 630.2Z"/>
<path d="M793.9 607.9C795.1 602.7 794.9 597.3 793.4 592.2 789.5 595.8 786.7 600.4 785.2 605.5 784 610.7 784.2 616.1 785.7 621.2 789.5 617.6 792.4 613 793.9 607.9ZM787.1 606C788.1 602.4 789.9 599.1 792.3 596.3 793 600 792.8 603.8 792 607.4 791 611 789.2 614.3 786.8 617.1 786.1 613.4 786.3 609.6 787.1 606L787.1 606Z"/>
<path d="M781.4 613.5C782.9 608.4 783.1 603 781.9 597.8 780.4 592.7 777.6 588.1 773.7 584.5 772.2 589.6 772 595 773.2 600.2 774.7 605.3 777.5 609.9 781.4 613.5ZM774.8 588.6C777.2 591.4 779 594.8 780 598.3 780.9 601.9 781 605.7 780.3 609.4 777.9 606.6 776.2 603.3 775.1 599.7 774.3 596.3 774.1 592.8 774.6 589.4 774.7 589.1 774.8 588.6 774.8 588.6Z"/>
<path d="M779.2 645.6C777 645 774.7 644.7 772.4 644.7 770.9 644.7 769.5 644.8 768 645 766.2 643.6 763.7 643.6 761.9 645 760.4 644.8 758.9 644.7 757.3 644.7 755.1 644.7 752.9 645 750.7 645.5 745.6 647 741 649.8 737.4 653.7 740.3 654.6 743.4 655 746.4 655 748.6 655 750.9 654.7 753.1 654.2 754.4 653.8 755.7 653.4 756.9 652.8 755.4 655.1 753.3 656.9 750.8 657.9L753.1 663.4C758.5 661.1 760.8 657.7 762.9 654.7 763.1 654.4 763.3 654.1 763.6 653.8 764.5 654.1 765.5 654.1 766.4 653.8 766.6 654.1 766.9 654.4 767.1 654.8 769.1 657.8 771.4 661.2 776.9 663.5L779.2 658C776.7 657 774.6 655.2 773.1 652.9 774.3 653.4 775.6 653.9 776.9 654.3 779.1 654.9 781.3 655.1 783.6 655.1 786.7 655.1 789.7 654.7 792.6 653.8 789 649.9 784.3 647.1 779.2 645.6ZM756.1 651C755 651.5 753.8 651.9 752.7 652.3 750.7 652.8 748.7 653.1 746.6 653 744.9 653 743.3 652.9 741.6 652.6 744.4 650.2 747.7 648.4 751.3 647.4 753.3 646.9 755.3 646.7 757.4 646.7 758.4 646.7 759.5 646.8 760.5 646.9 760.2 647.6 760 648.3 760 649 760 649 760 649.1 760 649.1L756.1 651ZM761.6 653.2 761.3 653.6 761.2 653.8C759.5 656.3 757.7 658.8 754.2 660.7L753.4 658.9C755.5 657.7 757.2 656 758.6 654L760.5 651.3C760.8 651.9 761.3 652.5 761.8 652.9 761.8 653 761.7 653.1 761.6 653.2L761.6 653.2ZM762 649C762 647.3 763.3 646 765 646 766.7 646 768 647.3 768 649 768 650.7 766.7 652 765 652 763.3 652 762 650.7 762 649ZM776.7 658.9 776 660.7C772.3 658.7 770.6 656.1 768.9 653.6 768.7 653.3 768.5 653.1 768.3 652.8 768.8 652.3 769.3 651.8 769.6 651.1L771.7 654C772.9 656 774.7 657.7 776.7 658.9ZM783.7 653C781.6 653 779.6 652.8 777.6 652.3 776.4 651.9 775.2 651.5 774 651L770 649.3C770 649.2 770 649.1 770 649 770 648.3 769.8 647.6 769.5 646.9 770.5 646.8 771.4 646.7 772.4 646.7 774.5 646.7 776.6 647 778.7 647.5 782.3 648.5 785.6 650.2 788.5 652.6 786.9 652.9 785.3 653 783.7 653Z"/></g>
</svg>